
<svg height="49.999996" node-id="1" sillyvg="true" template-height="1040" template-width="3902"
              version="1.1" viewBox="0 0 187.59611 49.999996" width="187.59615" id="svg9"
              xmlns="http://www.w3.org/2000/svg" xmlns:svg="http://www.w3.org/2000/svg">
              <defs node-id="20" id="defs3">
                <linearGradient gradientUnits="userSpaceOnUse" id="linearGradient-9decvnerd6-1" node-id="3"
                  spreadMethod="pad" x1="59.467216" x2="953.69244" y1="297.74976" y2="794.00928">
                  <stop offset="0" stop-color="#63b9af" id="stop1" />
                  <stop offset="0.6075866" stop-color="#5494df" id="stop2" />
                  <stop offset="1" stop-color="#866ae8" id="stop3" />
                </linearGradient>
              </defs>
              <g node-id="29" id="g9" transform="scale(0.04807692)">
                <g node-id="30" id="g3">
                  <path
                    d="m 1040,520 -0.3,16.6 -0.8,16.4 -1.2,16.4 -1.9,16.3 -2.3,16.1 -2.8,16.2 -3.3,15.9 -3.8,15.8 -4.3,15.7 -4.8,15.5 -5.3,15.4 -5.7,15.2 -6.2,15 -6.7,14.8 -7.2,14.6 -7.6,14.3 -8,14.1 -8.5,13.9 -8.9,13.6 -9.4,13.4 -9.8,13.1 -10.2,12.8 -10.7,12.5 -11.1,12.2 -11.5,11.9 -11.9,11.5 -12.2,11.1 -12.5,10.7 -12.8,10.2 -13.1,9.8 -13.4,9.4 -13.6,8.9 -13.9,8.5 -14.1,8 -14.3,7.6 -14.6,7.2 -14.8,6.7 -15,6.2 -15.2,5.7 -15.4,5.3 -15.5,4.8 -15.7,4.3 -15.8,3.8 -15.9,3.3 -16.2,2.8 -16.1,2.3 -16.3,1.9 -16.4,1.2 -16.4,0.8 -16.6,0.3 -16.6,-0.3 -16.4,-0.8 -16.4,-1.2 -16.3,-1.9 -16.1,-2.3 -16.2,-2.8 -15.9,-3.3 -15.8,-3.8 -15.7,-4.3 -15.5,-4.8 -15.4,-5.3 -15.2,-5.7 -15,-6.2 -14.8,-6.7 -14.6,-7.2 -14.3,-7.6 -14.1,-8 -13.9,-8.5 -13.6,-8.9 L 214.8,941 201.7,931.2 188.9,921 176.4,910.3 164.2,899.2 152.3,887.7 140.8,875.8 129.7,863.6 119,851.1 108.8,838.3 99,825.2 89.6,811.8 80.7,798.2 72.2,784.3 64.2,770.2 56.6,755.9 49.4,741.3 42.7,726.5 36.5,711.5 30.8,696.3 25.5,680.9 20.7,665.4 16.4,649.7 12.6,633.9 9.3,618 6.5,601.8 4.2,585.7 2.3,569.4 1.1,553 0.3,536.6 0,520 0.3,503.4 1.1,487 2.3,470.6 4.2,454.3 6.5,438.2 9.3,422 l 3.3,-15.9 3.8,-15.8 4.3,-15.7 4.8,-15.5 5.3,-15.4 5.7,-15.2 6.2,-15 6.7,-14.8 7.2,-14.6 7.6,-14.3 8,-14.1 8.5,-13.9 8.9,-13.6 9.4,-13.4 9.8,-13.1 10.2,-12.8 10.7,-12.5 11.1,-12.2 11.5,-11.9 11.9,-11.5 12.2,-11.1 12.5,-10.7 12.8,-10.2 13.1,-9.8 13.4,-9.4 13.6,-8.9 13.9,-8.5 14.1,-8 14.3,-7.6 14.6,-7.2 14.8,-6.7 15,-6.2 15.2,-5.7 15.4,-5.3 15.5,-4.8 15.7,-4.3 15.8,-3.8 L 422,9.3 438.2,6.5 454.3,4.2 470.6,2.3 487,1.1 503.4,0.3 520,0 l 16.6,0.3 16.4,0.8 16.4,1.2 16.3,1.9 16.1,2.3 16.2,2.8 15.9,3.3 15.8,3.8 15.7,4.3 15.5,4.8 15.4,5.3 15.2,5.7 15,6.2 14.8,6.7 14.6,7.2 14.3,7.6 14.1,8 13.9,8.5 13.6,8.9 13.4,9.4 13.1,9.8 12.8,10.2 12.5,10.7 12.2,11.1 11.9,11.5 11.5,11.9 11.1,12.2 10.7,12.5 10.2,12.8 9.8,13.1 9.4,13.4 8.9,13.6 8.5,13.9 8,14.1 7.6,14.3 7.2,14.6 6.7,14.8 6.2,15 5.7,15.2 5.3,15.4 4.8,15.5 4.3,15.7 3.8,15.8 3.3,15.9 2.8,16.2 2.3,16.1 1.9,16.3 1.2,16.4 0.8,16.4 z"
                    fill="url(#linearGradient-9decvnerd6-1)" fill-rule="evenodd" group-id="1,2" id="椭圆形" node-id="9"
                    stroke="none" target-height="1040" target-width="1040" target-x="0" target-y="0"
                    style="fill: url(#linearGradient-9decvnerd6-1)" />
                </g>
                <path
                  d="m 202.7,305 v 78.6 h 47.5 v 29.3 h -47.5 v 20.7 l 18.6,24.1 9.2,12.8 19.1,28.9 9.4,15.1 -17.2,27.1 -39.1,-78.4 V 693 h -30 V 473.1 l -8.1,20.9 -13.2,28.8 -8.6,16.5 -8.8,15.7 -8.8,14.8 -8.9,14.1 -13.3,-32.9 11.2,-16 9.8,-14.8 8.5,-13.9 7.4,-12.9 6.3,-12 5.3,-11.1 4.4,-10.3 8.4,-21.9 5,-13.6 3.4,-11.6 h -58.6 v -29.3 h 58.6 V 305 Z m 157.7,0 v 93.8 l 102.9,-16 4.6,28.7 -106.6,17 -0.1,10.9 0.7,20.4 0.8,8.2 2.6,15.7 114.5,-19.7 4.4,28 -115.6,20.6 2.3,17.2 2.4,13.6 2.2,10.6 2.8,10.7 2.8,8.6 2.6,6.7 2.5,5.2 9,-8 8.9,-8.7 8.9,-9.6 10.3,-12 10.2,-12.8 10.2,-13.7 24.2,16.5 -19,23.9 -18.7,21.5 -16.4,16.9 -16.1,14.5 5.9,9.5 5.7,8.2 5.5,7.1 5.2,5.9 5,5 4,3.3 3.7,2.5 3.6,1.8 3.6,1.2 3.4,0.6 h 3.4 l 3.3,-1.5 2.7,-1.7 2.1,-1.8 1.6,-2.1 1.1,-2.3 3.7,-10.4 3.3,-10.7 2.8,-11 2.4,-11.4 1.9,-11.7 26.4,17 -2.4,11.1 -2.7,10.3 -3.1,9.6 -3.4,9 -3.8,8.4 -4.1,7.8 -6.6,10.4 -2.4,2.7 -2.9,2.5 -3.2,2.2 -3.7,1.9 -4.2,1.6 -4.7,1.3 -5.2,-0.3 -5.3,-0.9 -5.7,-1.7 -5.9,-2.3 -6.2,-3.2 -6.6,-4.1 -7,-5.1 -7.1,-6.3 -6.4,-6.5 -5.9,-6.6 -5.2,-6.7 -4.7,-6.9 -4.1,-7.1 -15.9,10.6 -15.5,9.6 -15,8.6 -10.4,5.4 -10.4,4.8 -10.4,4.2 -10.6,3.6 -10.7,3.1 -10.7,2.5 -17.9,-23.6 15,-5.4 15.1,-6 15.1,-6.5 15.2,-6.9 10.4,-5.1 10.4,-5.7 10.6,-6.2 10.7,-6.7 10.8,-7.3 -5.5,-15.5 -5.1,-15.5 -4.6,-15.4 -2.9,-11.2 -2.8,-13.5 -2.7,-16.1 -69.5,11.7 -4.7,-27.2 70.5,-13.1 -4.9,-56.5 -63.2,9 -4.5,-27.2 67.7,-10.7 V 305 Z m 49.6,1 8.9,8.2 8.1,8.2 7.6,8.2 7.9,9.4 L 457,358.3 433.7,375 422,360.8 410,346.8 398.7,334.2 387,321.8 Z"
                  fill="#ffffff" fill-rule="evenodd" group-id="1" id="形状结合" node-id="10" stroke="none"
                  target-height="388" target-width="395" target-x="103" target-y="305" />
                <path
                  d="m 910,646 v 30 H 552 v -30 z m -242.6,-343 32,6.8 -22.1,31.7 h 147.8 v 23 l -6.4,8.8 -13,15.9 -15.7,16.6 -9.4,9 H 870 V 598 H 595.5 V 425.3 l -39.8,28.6 -19.7,-24.3 13.4,-8.8 13.1,-9.2 12.9,-9.7 12.6,-10.1 12.3,-10.6 12.1,-11 9.9,-9.7 9.6,-10.3 9.3,-10.8 9,-11.5 8.8,-12.1 z m 49.7,216.2 H 627 v 49.3 h 90.1 z m 123,0 h -92 v 49.3 h 92 z m -123,-74.6 H 627 V 491 h 90.1 z m 122.8,0 h -92 V 491 h 92 z M 785.5,370.2 H 653.8 l -8.8,9.6 -9.1,9.4 -13.4,13.1 -13.7,12.8 h 132.9 l 20,-19.5 z"
                  fill="#ffffff" fill-rule="evenodd" group-id="1" id="path3" node-id="11" stroke="none"
                  target-height="373" target-width="374" target-x="536" target-y="303" />
                <g node-id="31" id="g8">
                  <path
                    d="M 1299.5,396.5 1294,425 h 308 l -6.5,47.5 h -311 l -44,227 H 1155 L 1219.5,367 1204,349 h 399 l -6.5,47.5 z M 1582,501 1554,699.5 H 1288 L 1316,501 Z M 1484.5,653 1499,548.5 H 1385 L 1370.5,653 Z"
                    fill="#333333" fill-rule="nonzero" group-id="1,3" id="形状" node-id="13" stroke="none"
                    target-height="350.5" target-width="448" target-x="1155" target-y="349" />
                  <path
                    d="m 2031,520 -24,169.5 h -367.5 l 24,-169.5 z m -28,-161 35.5,142 h -81 l -2,-7.5 H 1666 l 5,-36 72,-106 -12,-11.5 h 123.5 l -75,107.5 H 1944 L 1922,359 Z m -83.5,283 10.5,-75 h -180 l -10.5,75 z"
                    fill="#333333" fill-rule="nonzero" group-id="1,3" id="path4" node-id="14" stroke="none"
                    target-height="349.5" target-width="399" target-x="1639.5" target-y="340" />
                  <path
                    d="m 2449,520 -10.5,76 h -238 l -2,14 H 2446 l -13,89.5 H 2091 L 2116.5,520 h -38 l 10.5,-76 h 154 l -2,-13.5 h 110.5 l 2,13.5 H 2507 l -10.5,76 z m -33,-161.5 h 103 l -5,38 h -48 l 15.5,28.5 h -76 l -14,-25 -14.5,25 h -85.5 l 42,-72.5 -11,-13 H 2427 Z m -200,0 h 94 l -5,38 h -39 l 16,28.5 h -76 l -14,-25 -14.5,25 H 2092 l 42,-72.5 -11,-13 h 104.5 z m -40.5,147 h 228 l 2,-14 h -228 z m 17.5,142.5 -2,14.5 h 152.5 l 2,-14.5 z m 15,-104.5 -2,14.5 h 142.5 l 2,-14.5 z"
                    fill="#333333" fill-rule="nonzero" group-id="1,3" id="path5" node-id="15" stroke="none"
                    target-height="360" target-width="440.5" target-x="2078.5" target-y="339.5" />
                  <path
                    d="m 2785.5,567 4,-29 h -83 L 2733,348.5 h 251 L 2957.5,538 h -92 l -4,29 h 91 l -7,47.5 H 2855 l -4,28.5 h 101.5 l -6.5,47.5 H 2674.5 L 2681,643 h 94 l 4,-28.5 h -84.5 l 7,-47.5 z m -195.5,-89 12,-85 h -24 l 6,-44.5 h 132 l -6,44.5 h -29 l -12,85 h 30.5 l -7.5,50.5 h -30 l -13,94.5 29,-5.5 -6.5,48.5 -138,24.5 6.5,-47.5 27.5,-5 15.5,-109.5 h -26 l 7.5,-50.5 z m 188,-57.5 h 28.5 l 3.5,-27 h -28 z m 122.5,72 3.5,-27 h -28 l -4,27 z m -14.5,-99 -3.5,27 h 27.5 l 4,-27 z m -90,99 4,-27 h -28 l -3.5,27 z"
                    fill="#333333" fill-rule="nonzero" group-id="1,3" id="path6" node-id="16" stroke="none"
                    target-height="342" target-width="450.5" target-x="2533.5" target-y="348.5" />
                  <path
                    d="m 3440.5,386.5 -223.5,8.5 -38,25.5 h 238 l -7.5,53.5 H 3212 l -65,41.5 h 166.5 l -2,-19.5 h 95 l 8,76.5 h -95 l -1,-9.5 H 3264 l -14.5,103.5 -1.1,4.8 -1.5,4.4 -2,4 -2.5,3.8 -2.9,3.5 -3.5,3.3 -3.8,2.8 -3.9,2.3 -4.2,1.8 -4.3,1.3 -4.5,0.7 -4.8,0.3 h -99 l 44.5,-46.5 13,-90 h -133 l 6.5,-47.5 70,-42 h -64 l 7.5,-52 37.5,-22 -54,2 7.5,-52.5 400.5,-10 z m -32,295 H 3323 l -34,-95 h 85.5 z m -332.5,0 h -85.5 l 61,-95 h 85 z"
                    fill="#333333" fill-rule="nonzero" group-id="1,3" id="path7" node-id="17" stroke="none"
                    target-height="360.5" target-width="457" target-x="2990.5" target-y="339" />
                  <path
                    d="m 3871,453.5 16.5,85.5 H 3821 l -2,-9 -188,9 6.5,-47.5 48.5,-76 h -47.5 l 7,-47.5 h 80 l 1.5,-9.5 -16,-19 h 114 l -4.5,28.5 h 81.5 l -7,47.5 h -114 l -45.5,71 74.5,-3.5 -5.5,-29.5 z M 3489.5,463 3554,361.5 3543.5,349 H 3648 l -73,114 h 57 l -73,114 h 57 l -6.5,47.5 H 3467 l 6.5,-47.5 42.5,-66.5 h -33 z m 339.5,85.5 -12,85.5 h 38 l 21.5,-19 -10.5,76 h -133 l 20,-142.5 z m -95,0 -48.5,142.5 h -76 L 3658,548.5 Z m -134,142.5 -144,8.5 7,-46.5 143.5,-9.5 z"
                    fill="#333333" fill-rule="nonzero" group-id="1,3" id="path8" node-id="18" stroke="none"
                    target-height="360" target-width="446" target-x="3456" target-y="339.5" />
                </g>
              </g>
            </svg>