<?xml version="1.0" standalone="no"?><!DOCTYPE svg PUBLIC "-//W3C//DTD SVG 1.1//EN" "http://www.w3.org/Graphics/SVG/1.1/DTD/svg11.dtd"><svg t="1763435344269" class="icon" viewBox="0 0 1024 1024" version="1.1" xmlns="http://www.w3.org/2000/svg" p-id="1462" xmlns:xlink="http://www.w3.org/1999/xlink" width="200" height="200"><path d="M557.25 274.75c-32.35 4.35-67.1 19.35-100.25 43.25-17.6 12.7-27.7 21.2-40.9 34.5-8.4 8.45-16.1 16.95-16.1 17.75 0 0.35 0.25 0.35 14.1-1.5 44-5.8 91.9-4.95 112.4 2 10.35 3.5 14 7.9 14.4 17.4 0.25 5.35 0.05 6.3-3.5 17.35-6.95 21.6-25.9 49.05-51.6 74.75-12 12-24.55 22.9-33 28.65-3.35 2.25-4.1 2.6-4.2 1.9-0.15-0.6 1.4-2.55 4.25-5.5 13.8-14.3 24.5-27.6 33.6-41.65 8.9-13.85 12.15-19.8 16.7-30.9 4.85-11.85 6.1-17.1 5.75-24.4-0.25-5.9-1.4-8.45-5.5-12.5-8.45-8.3-28.4-14.4-56.15-17.15-16.75-1.6-52.45-1.4-54.55 0.35-1.4 1.15-8.5 10.9-14.25 19.45-7.35 11.05-14.2 23.5-13.75 25.15 0.7 2.85 13.1 22.8 19.45 31.35 19.4 26.05 48.6 52.95 72.85 67.1 31.4 18.3 57.5 27.75 89.05 32.25 4.7 0.65 9.55 0.9 19.95 0.9 14.2 0 16.5-0.25 18.65-2.15 1.25-1.15 0.9-2.2-3.5-10.05-2.1-3.75-5.75-10.4-8.1-14.8-9.95-18.7-10.8-20.95-8.35-23.2 4.2-3.9 18.3-0.9 28.15 6 21.6 15.15 24.9 17.2 32.75 20.35 6.9 2.7 10.8 3.4 13.1 2.35 1-0.5 1.95-1.45 2.3-2.3 0.85-1.95-0.05-4.3-4.35-11.35-7.15-11.7-11.9-22.5-13.15-29.7-1.45-8.35 2-18.45 13.7-40.1 3.6-6.7 4-8.2 2.75-10.25-1.45-2.45-4.15-2.55-11.85-0.5-8.75 2.3-15.15 6.35-33.85 21.45-10.85 8.75-26.1 13.95-45.7 15.55-10.85 0.9-18.25 0.1-29.55-3.15-5.6-1.6-7-2.2-7-2.9 0-0.2 2.1-1.6 4.65-3.05 22.75-12.9 46.8-32.85 63.85-52.95 1.5-1.8 3.85-4.5 5.15-6 3.45-3.85 13.85-18.5 18.55-26.25 7.35-12.05 15.9-31.1 19.35-43.15 2.45-8.6 3.15-13.6 3.15-22.35 0.05-9.45-0.75-13.35-3.75-19.45-5.45-10.95-16.6-18.2-33.7-21.85-6.4-1.4-24.15-1.8-32-0.7zM445.1 402.55c5.3 1.15 9.2 4.15 11.75 9.05 1.15 2.3 1.35 3.25 1.35 6.9 0 3.65-0.2 4.6-1.35 6.85-2.5 4.8-5.95 7.35-11.9 8.65-4.75 1.05-9.9-0.6-14.2-4.55-2.9-2.7-4.3-6.05-4.3-10.5-0.05-5.15 1.15-8.15 4.5-11.5 2.95-2.9 4.95-4.1 8.3-4.9 2.75-0.6 2.85-0.6 5.85 0zM236.75 628.15c-0.15 0.35-0.2 6.15-0.15 12.85l0.15 12.25 28 0.15c15.4 0.1 28.2 0.35 28.45 0.6 0.55 0.55-11.75 14.95-35.7 41.7-5.65 6.35-11.85 13.3-13.8 15.5-1.95 2.25-4.4 4.85-5.4 5.75l-1.8 1.75v24.3l46.65-0.1 46.6-0.15 0.15-12.65 0.1-12.6h-28.75c-15.8 0-28.75-0.1-28.75-0.25 0-0.4 12.1-14.25 16.55-18.95 5.1-5.45 16.75-18.3 21.9-24.25 2.3-2.65 5.55-6.25 7.25-8.05 1.65-1.8 5-5.45 7.45-8.15l4.35-4.9v-12.4c0-10.9-0.1-12.5-0.8-12.75-0.45-0.15-21.35-0.3-46.5-0.3-36.5 0-45.8 0.15-45.95 0.65zM730 646.45c-10.7 2.25-18.9 7.45-26.1 16.5-3.4 4.25-5 7.15-6.95 12.8-2.25 6.55-2.45 9.75-2.45 39.55v27.7h25.5v-26.4c0-28.75 0.2-30.8 2.85-35.65 2.85-5.25 8.55-8.7 14.4-8.7 1.95 0 4.45 0.3 5.6 0.65 4.3 1.3 8.9 6.1 10.25 10.75 0.4 1.5 0.6 10.15 0.6 30.7l0.05 28.65h12.65c6.9 0 12.65-0.05 12.7-0.15 0.05-0.05 0.25-13.15 0.4-29.1 0.3-33.15 0-31.2 4.95-36.4 3.85-4.05 6.3-5.1 12.05-5.1 3.95 0 5.1 0.2 6.85 1.15 4.65 2.45 7.6 6.15 8.65 10.85 0.4 1.75 0.6 11 0.55 30.6l-0.05 28.15h26.05l-0.15-30.15-0.2-30.1-1.35-4.9c-2.25-8.35-5.9-14.9-11.2-20.2-7.2-7.15-16.8-11.35-27.5-12-11.1-0.65-21.2 2.8-28.55 9.8-2.05 1.95-3.6 2.6-3.6 1.55 0-0.9-6.75-5.9-10.45-7.75-7.05-3.55-16.9-4.6-25.55-2.8zM375.05 646.75c-17.55 3.85-30.15 15-35.9 31.75-3.2 9.4-3.35 20.55-0.35 30.8 5.9 20.5 25.8 35.1 46.2 34 8.3-0.4 15.95-3 22.65-7.65l3.85-2.65v2.35c0 1.35 0.15 3.6 0.3 5l0.35 2.65H438v-95h-12.65c-9.15 0-12.8 0.15-13.25 0.6-0.35 0.35-0.6 1.9-0.6 3.5s-0.15 2.9-0.3 2.9c-0.2 0-2.25-1.25-4.65-2.75-5.25-3.3-9.6-5-14.75-5.7-5.2-0.75-12.85-0.65-16.75 0.2z m19.6 26.25c6.2 2.35 12.05 9.85 13.4 17.25 2.05 11.1-3.95 22.3-14.05 26.35-2.25 0.9-3.8 1.1-8.25 1.1-5.35 0.05-5.6 0-9.35-1.8-6.45-3.05-10-7.15-12.35-14.25-1.8-5.4-1.1-12.6 1.75-18.3 2.5-4.9 8.4-9.55 14.2-11.2 3.4-0.95 11.05-0.55 14.65 0.85zM455.15 674.9c0.2 30.25 0.2 30.45 4.3 39.25 8.9 19.35 25.6 29.85 47.3 29.85 7.05 0 11.75-1.15 18.5-4.5 2.7-1.35 5-2.4 5.1-2.35 0.35 0.4-1.65 6.45-3.4 10.15-4.85 10.25-14.35 15.6-26.95 15.1-4.45-0.2-6.05-0.5-10.5-2.1-2.9-1-5.65-2-6.1-2.15-0.9-0.25-2.1 1.95-5.25 9.85-0.85 2.1-2.35 5.45-3.3 7.55-2.95 6.2-3 6.35-1.7 7.15 1.5 1 4.55 2 11.65 3.85 5.1 1.3 7.15 1.6 13.95 1.8 8.3 0.25 9.95 0.05 19.35-2.55 5.65-1.55 13.35-6 19.35-11.25 8.15-7.05 15.65-20.95 18.65-34.55 1.05-4.6 1.05-6.25 1.25-48.4l0.2-43.65-9.15 0.15c-5.05 0.05-10.8 0.2-12.75 0.3l-3.65 0.2v21.8c-0.05 24.65-0.3 27.5-3.2 33.35-0.95 1.9-2.75 4.55-4 5.9-8.45 8.75-20.65 10.55-31.55 4.55-3.35-1.85-8.2-6.9-9.85-10.3-2.55-5.15-2.6-5.8-2.7-27.65-0.05-11.3-0.1-22.25-0.15-24.35l-0.05-3.9-12.8 0.05h-12.75l0.2 26.85zM574.5 654.75c0 3.55-0.15 13.35-0.3 21.75-0.35 17.05 0.05 23.25 2.05 30 4.3 14.55 13.35 25.35 27.35 32.55 5.25 2.7 15.45 4.95 22.45 4.95 9.55 0 21.5-3.7 29.45-9.15 7.9-5.45 15.3-15.3 18.6-24.85 2.5-7.15 2.55-7.75 2.75-35.4l0.2-26.1-6.4-0.1c-3.5-0.05-9.2-0.1-12.65-0.1l-6.25-0.05-0.3 24c-0.25 20-0.45 24.45-1.1 26.75-3.45 11.65-12.2 18.5-23.75 18.5-7.75 0-13.45-2.35-18.9-7.75-2.05-2.05-4-4.55-4.7-6-2.75-5.95-2.7-5.3-3-31.2l-0.25-24.25h-12.65l-12.6-0.05v6.5z" p-id="1463" fill="#1296db"></path></svg>