<?xml version="1.0" standalone="no"?><!DOCTYPE svg PUBLIC "-//W3C//DTD SVG 1.1//EN" "http://www.w3.org/Graphics/SVG/1.1/DTD/svg11.dtd"><svg height="1040" node-id="1" sillyvg="true" template-height="1040" template-width="1040" version="1.1" viewBox="0 0 1040 1040" width="1040" xmlns="http://www.w3.org/2000/svg" xmlns:xlink="http://www.w3.org/1999/xlink"><defs node-id="13"><linearGradient gradientUnits="objectBoundingBox" id="linearGradient-op97xru34j-1" node-id="3" spreadMethod="pad" x1="0.057180017" x2="0.917012" y1="0.28629786" y2="0.7634705"><stop offset="0" stop-color="#63b9af"></stop><stop offset="0.6075866" stop-color="#5494df"></stop><stop offset="1" stop-color="#866ae8"></stop></linearGradient></defs><g node-id="22"><g node-id="23"><path d="M 1040.00 520.00 L 1039.70 536.60 L 1038.90 553.00 L 1037.70 569.40 L 1035.80 585.70 L 1033.50 601.80 L 1030.70 618.00 L 1027.40 633.90 L 1023.60 649.70 L 1019.30 665.40 L 1014.50 680.90 L 1009.20 696.30 L 1003.50 711.50 L 997.30 726.50 L 990.60 741.30 L 983.40 755.90 L 975.80 770.20 L 967.80 784.30 L 959.30 798.20 L 950.40 811.80 L 941.00 825.20 L 931.20 838.30 L 921.00 851.10 L 910.30 863.60 L 899.20 875.80 L 887.70 887.70 L 875.80 899.20 L 863.60 910.30 L 851.10 921.00 L 838.30 931.20 L 825.20 941.00 L 811.80 950.40 L 798.20 959.30 L 784.30 967.80 L 770.20 975.80 L 755.90 983.40 L 741.30 990.60 L 726.50 997.30 L 711.50 1003.50 L 696.30 1009.20 L 680.90 1014.50 L 665.40 1019.30 L 649.70 1023.60 L 633.90 1027.40 L 618.00 1030.70 L 601.80 1033.50 L 585.70 1035.80 L 569.40 1037.70 L 553.00 1038.90 L 536.60 1039.70 L 520.00 1040.00 L 503.40 1039.70 L 487.00 1038.90 L 470.60 1037.70 L 454.30 1035.80 L 438.20 1033.50 L 422.00 1030.70 L 406.10 1027.40 L 390.30 1023.60 L 374.60 1019.30 L 359.10 1014.50 L 343.70 1009.20 L 328.50 1003.50 L 313.50 997.30 L 298.70 990.60 L 284.10 983.40 L 269.80 975.80 L 255.70 967.80 L 241.80 959.30 L 228.20 950.40 L 214.80 941.00 L 201.70 931.20 L 188.90 921.00 L 176.40 910.30 L 164.20 899.20 L 152.30 887.70 L 140.80 875.80 L 129.70 863.60 L 119.00 851.10 L 108.80 838.30 L 99.00 825.20 L 89.60 811.80 L 80.70 798.20 L 72.20 784.30 L 64.20 770.20 L 56.60 755.90 L 49.40 741.30 L 42.70 726.50 L 36.50 711.50 L 30.80 696.30 L 25.50 680.90 L 20.70 665.40 L 16.40 649.70 L 12.60 633.90 L 9.30 618.00 L 6.50 601.80 L 4.20 585.70 L 2.30 569.40 L 1.10 553.00 L 0.30 536.60 L 0.00 520.00 L 0.30 503.40 L 1.10 487.00 L 2.30 470.60 L 4.20 454.30 L 6.50 438.20 L 9.30 422.00 L 12.60 406.10 L 16.40 390.30 L 20.70 374.60 L 25.50 359.10 L 30.80 343.70 L 36.50 328.50 L 42.70 313.50 L 49.40 298.70 L 56.60 284.10 L 64.20 269.80 L 72.20 255.70 L 80.70 241.80 L 89.60 228.20 L 99.00 214.80 L 108.80 201.70 L 119.00 188.90 L 129.70 176.40 L 140.80 164.20 L 152.30 152.30 L 164.20 140.80 L 176.40 129.70 L 188.90 119.00 L 201.70 108.80 L 214.80 99.00 L 228.20 89.60 L 241.80 80.70 L 255.70 72.20 L 269.80 64.20 L 284.10 56.60 L 298.70 49.40 L 313.50 42.70 L 328.50 36.50 L 343.70 30.80 L 359.10 25.50 L 374.60 20.70 L 390.30 16.40 L 406.10 12.60 L 422.00 9.30 L 438.20 6.50 L 454.30 4.20 L 470.60 2.30 L 487.00 1.10 L 503.40 0.30 L 520.00 0.00 L 536.60 0.30 L 553.00 1.10 L 569.40 2.30 L 585.70 4.20 L 601.80 6.50 L 618.00 9.30 L 633.90 12.60 L 649.70 16.40 L 665.40 20.70 L 680.90 25.50 L 696.30 30.80 L 711.50 36.50 L 726.50 42.70 L 741.30 49.40 L 755.90 56.60 L 770.20 64.20 L 784.30 72.20 L 798.20 80.70 L 811.80 89.60 L 825.20 99.00 L 838.30 108.80 L 851.10 119.00 L 863.60 129.70 L 875.80 140.80 L 887.70 152.30 L 899.20 164.20 L 910.30 176.40 L 921.00 188.90 L 931.20 201.70 L 941.00 214.80 L 950.40 228.20 L 959.30 241.80 L 967.80 255.70 L 975.80 269.80 L 983.40 284.10 L 990.60 298.70 L 997.30 313.50 L 1003.50 328.50 L 1009.20 343.70 L 1014.50 359.10 L 1019.30 374.60 L 1023.60 390.30 L 1027.40 406.10 L 1030.70 422.00 L 1033.50 438.20 L 1035.80 454.30 L 1037.70 470.60 L 1038.90 487.00 L 1039.70 503.40 L 1040.00 520.00 Z" fill="url(#linearGradient-op97xru34j-1)" fill-rule="evenodd" group-id="1,2" id="椭圆形" node-id="9" stroke="none" target-height="1040" target-width="1040" target-x="0" target-y="0"></path></g><path d="M 202.70 305.00 L 202.70 383.60 L 250.20 383.60 L 250.20 412.90 L 202.70 412.90 L 202.70 433.60 L 221.30 457.70 L 230.50 470.50 L 249.60 499.40 L 259.00 514.50 L 241.80 541.60 L 202.70 463.20 L 202.70 693.00 L 172.70 693.00 L 172.70 473.10 L 164.60 494.00 L 151.40 522.80 L 142.80 539.30 L 134.00 555.00 L 125.20 569.80 L 116.30 583.90 L 103.00 551.00 L 114.20 535.00 L 124.00 520.20 L 132.50 506.30 L 139.90 493.40 L 146.20 481.40 L 151.50 470.30 L 155.90 460.00 L 164.30 438.10 L 169.30 424.50 L 172.70 412.90 L 114.10 412.90 L 114.10 383.60 L 172.70 383.60 L 172.70 305.00 L 202.70 305.00 Z M 360.40 305.00 L 360.40 398.80 L 463.30 382.80 L 467.90 411.50 L 361.30 428.50 L 361.20 439.40 L 361.90 459.80 L 362.70 468.00 L 365.30 483.70 L 479.80 464.00 L 484.20 492.00 L 368.60 512.60 L 370.90 529.80 L 373.30 543.40 L 375.50 554.00 L 378.30 564.70 L 381.10 573.30 L 383.70 580.00 L 386.20 585.20 L 395.20 577.20 L 404.10 568.50 L 413.00 558.90 L 423.30 546.90 L 433.50 534.10 L 443.70 520.40 L 467.90 536.90 L 448.90 560.80 L 430.20 582.30 L 413.80 599.20 L 397.70 613.70 L 403.60 623.20 L 409.30 631.40 L 414.80 638.50 L 420.00 644.40 L 425.00 649.40 L 429.00 652.70 L 432.70 655.20 L 436.30 657.00 L 439.90 658.20 L 443.30 658.80 L 446.70 658.80 L 450.00 657.30 L 452.70 655.60 L 454.80 653.80 L 456.40 651.70 L 457.50 649.40 L 461.20 639.00 L 464.50 628.30 L 467.30 617.30 L 469.70 605.90 L 471.60 594.20 L 498.00 611.20 L 495.60 622.30 L 492.90 632.60 L 489.80 642.20 L 486.40 651.20 L 482.60 659.60 L 478.50 667.40 L 471.90 677.80 L 469.50 680.50 L 466.60 683.00 L 463.40 685.20 L 459.70 687.10 L 455.50 688.70 L 450.80 690.00 L 445.60 689.70 L 440.30 688.80 L 434.60 687.10 L 428.70 684.80 L 422.50 681.60 L 415.90 677.50 L 408.90 672.40 L 401.80 666.10 L 395.40 659.60 L 389.50 653.00 L 384.30 646.30 L 379.60 639.40 L 375.50 632.30 L 359.60 642.90 L 344.10 652.50 L 329.10 661.10 L 318.70 666.50 L 308.30 671.30 L 297.90 675.50 L 287.30 679.10 L 276.60 682.20 L 265.90 684.70 L 248.00 661.10 L 263.00 655.70 L 278.10 649.70 L 293.20 643.20 L 308.40 636.30 L 318.80 631.20 L 329.20 625.50 L 339.80 619.30 L 350.50 612.60 L 361.30 605.30 L 355.80 589.80 L 350.70 574.30 L 346.10 558.90 L 343.20 547.70 L 340.40 534.20 L 337.70 518.10 L 268.20 529.80 L 263.50 502.60 L 334.00 489.50 L 329.10 433.00 L 265.90 442.00 L 261.40 414.80 L 329.10 404.10 L 329.10 305.00 L 360.40 305.00 Z M 410.00 306.00 L 418.90 314.20 L 427.00 322.40 L 434.60 330.60 L 442.50 340.00 L 457.00 358.30 L 433.70 375.00 L 422.00 360.80 L 410.00 346.80 L 398.70 334.20 L 387.00 321.80 Z" fill="#ffffff" fill-rule="evenodd" group-id="1" id="形状结合" node-id="10" stroke="none" target-height="388" target-width="395" target-x="103" target-y="305"></path><path d="M 910.00 646.00 L 910.00 676.00 L 552.00 676.00 L 552.00 646.00 L 910.00 646.00 Z M 667.40 303.00 L 699.40 309.80 L 677.30 341.50 L 825.10 341.50 L 825.10 364.50 L 818.70 373.30 L 805.70 389.20 L 790.00 405.80 L 780.60 414.80 L 870.00 414.80 L 870.00 598.00 L 595.50 598.00 L 595.50 425.30 L 555.70 453.90 L 536.00 429.60 L 549.40 420.80 L 562.50 411.60 L 575.40 401.90 L 588.00 391.80 L 600.30 381.20 L 612.40 370.20 L 622.30 360.50 L 631.90 350.20 L 641.20 339.40 L 650.20 327.90 L 659.00 315.80 L 667.40 303.00 Z M 717.10 519.20 L 627.00 519.20 L 627.00 568.50 L 717.10 568.50 L 717.10 519.20 Z M 840.10 519.20 L 748.10 519.20 L 748.10 568.50 L 840.10 568.50 L 840.10 519.20 Z M 717.10 444.60 L 627.00 444.60 L 627.00 491.00 L 717.10 491.00 L 717.10 444.60 Z M 839.90 444.60 L 747.90 444.60 L 747.90 491.00 L 839.90 491.00 L 839.90 444.60 Z M 785.50 370.20 L 653.80 370.20 L 645.00 379.80 L 635.90 389.20 L 622.50 402.30 L 608.80 415.10 L 741.70 415.10 L 761.70 395.60 L 785.50 370.20 Z" fill="#ffffff" fill-rule="evenodd" group-id="1" id="形状结合" node-id="11" stroke="none" target-height="373" target-width="374" target-x="536" target-y="303"></path></g></svg>